<svg width="400" height="400" viewBox="0 0 400 400" fill="none" xmlns="http://www.w3.org/2000/svg">
  <rect width="400" height="400" fill="#F8F8F8"/>
  <path d="M200 160C177.909 160 160 177.909 160 200C160 222.091 177.909 240 200 240C222.091 240 240 222.091 240 200C240 177.909 222.091 160 200 160ZM200 226.667C185.2 226.667 173.333 214.8 173.333 200C173.333 185.2 185.2 173.333 200 173.333C214.8 173.333 226.667 185.2 226.667 200C226.667 214.8 214.8 226.667 200 226.667Z" fill="#CCCCCC"/>
  <path d="M133.333 93.3333H266.667V306.667H133.333V93.3333ZM266.667 80H133.333C125.973 80 120 85.9733 120 93.3333V306.667C120 314.027 125.973 320 133.333 320H266.667C274.027 320 280 314.027 280 306.667V93.3333C280 85.9733 274.027 80 266.667 80Z" fill="#CCCCCC"/>
  <path d="M173.333 133.333H226.667V146.667H173.333V133.333ZM173.333 253.333H226.667V266.667H173.333V253.333Z" fill="#CCCCCC"/>
  <text x="200" y="350" text-anchor="middle" font-family="Arial, sans-serif" font-size="16" fill="#999999">Product Image</text>
</svg>
